<?xml version="1.0" encoding="utf-8"?>
<!-- Generator: Adobe Illustrator 22.0.1, SVG Export Plug-In . SVG Version: 6.00 Build 0)  -->
<svg version="1.1" xmlns="http://www.w3.org/2000/svg" xmlns:xlink="http://www.w3.org/1999/xlink" x="0px" y="0px"
	 viewBox="0 0 24 24" style="enable-background:new 0 0 24 24;" xml:space="preserve">
<g id="Layer_1">
	<path d="M20.7,12.1l-4.4-4v3c-4.1,0-10.3,0-13.1,0v2.1c3.5,0,9.7-0.1,13.1-0.1v3L20.7,12.1z"/>
</g>
<g id="Layer_2">
	<path d="M12,2.1c5.5,0,10,4.5,10,10s-4.5,10-10,10s-10-4.5-10-10S6.5,2.1,12,2.1z M12,0.1c-6.6,0-12,5.4-12,12s5.4,12,12,12
		s12-5.4,12-12S18.6,0.1,12,0.1z"/>
</g>
</svg>
