<?xml version="1.0" encoding="utf-8"?>
<!-- Generator: Adobe Illustrator 22.0.1, SVG Export Plug-In . SVG Version: 6.00 Build 0)  -->
<svg version="1.1" xmlns="http://www.w3.org/2000/svg" xmlns:xlink="http://www.w3.org/1999/xlink" x="0px" y="0px"
	 viewBox="0 0 24 24" style="enable-background:new 0 0 24 24;" xml:space="preserve">
<g id="Layer_1">
	<path d="M16,10v-2c-0.7,0-2.2-0.1-2.9,1.4l-2.8,5.5c-0.7,1.3-2,2.2-3.5,2.2H4.3v-1.3h2.5c1,0,1.9-0.6,2.3-1.4l2.8-5.5
		c0.9-1.8,2.4-2.2,4.1-2.2v-2l3.9,2.6C19.9,7.4,16,10,16,10z M9.8,10.9l0.7-1.5C9.8,7.8,8.7,6.8,6.8,6.8H4.3v1.3h2.5
		C8.7,8.1,9.2,9.6,9.8,10.9z M19.9,16.6L16,14v2c-2.5,0-2.6-0.8-3.6-2.8l-0.7,1.5c0.7,1.3,1.4,2.7,4.4,2.7v2L19.9,16.6z"/>
</g>
<g id="Layer_2">
	<path d="M12,2c5.5,0,10,4.5,10,10s-4.5,10-10,10S2,17.5,2,12S6.5,2,12,2z M12,0C5.4,0,0,5.4,0,12s5.4,12,12,12s12-5.4,12-12
		S18.6,0,12,0z"/>
</g>
</svg>
