<svg id="visual" viewBox="0 0 900 600" width="900" height="600" xmlns="http://www.w3.org/2000/svg" xmlns:xlink="http://www.w3.org/1999/xlink" version="1.1"><rect x="0" y="0" width="900" height="600" fill="#6600ff"></rect><path d="M0 521L39 521L39 543L78 543L78 568L117 568L117 527L157 527L157 526L196 526L196 526L235 526L235 548L274 548L274 556L313 556L313 526L352 526L352 507L391 507L391 577L430 577L430 512L470 512L470 543L509 543L509 558L548 558L548 583L587 583L587 558L626 558L626 570L665 570L665 530L704 530L704 571L743 571L743 538L783 538L783 580L822 580L822 509L861 509L861 536L900 536L900 534L900 0L900 0L861 0L861 0L822 0L822 0L783 0L783 0L743 0L743 0L704 0L704 0L665 0L665 0L626 0L626 0L587 0L587 0L548 0L548 0L509 0L509 0L470 0L470 0L430 0L430 0L391 0L391 0L352 0L352 0L313 0L313 0L274 0L274 0L235 0L235 0L196 0L196 0L157 0L157 0L117 0L117 0L78 0L78 0L39 0L39 0L0 0Z" fill="#6600ff"></path><path d="M0 522L39 522L39 471L78 471L78 508L117 508L117 525L157 525L157 497L196 497L196 477L235 477L235 501L274 501L274 482L313 482L313 471L352 471L352 455L391 455L391 502L430 502L430 485L470 485L470 513L509 513L509 524L548 524L548 492L587 492L587 478L626 478L626 488L665 488L665 477L704 477L704 486L743 486L743 466L783 466L783 505L822 505L822 525L861 525L861 493L900 493L900 511L900 0L900 0L861 0L861 0L822 0L822 0L783 0L783 0L743 0L743 0L704 0L704 0L665 0L665 0L626 0L626 0L587 0L587 0L548 0L548 0L509 0L509 0L470 0L470 0L430 0L430 0L391 0L391 0L352 0L352 0L313 0L313 0L274 0L274 0L235 0L235 0L196 0L196 0L157 0L157 0L117 0L117 0L78 0L78 0L39 0L39 0L0 0Z" fill="#792df9"></path><path d="M0 445L39 445L39 448L78 448L78 416L117 416L117 404L157 404L157 410L196 410L196 464L235 464L235 405L274 405L274 447L313 447L313 458L352 458L352 454L391 454L391 444L430 444L430 400L470 400L470 454L509 454L509 456L548 456L548 455L587 455L587 436L626 436L626 435L665 435L665 456L704 456L704 413L743 413L743 455L783 455L783 408L822 408L822 436L861 436L861 457L900 457L900 446L900 0L900 0L861 0L861 0L822 0L822 0L783 0L783 0L743 0L743 0L704 0L704 0L665 0L665 0L626 0L626 0L587 0L587 0L548 0L548 0L509 0L509 0L470 0L470 0L430 0L430 0L391 0L391 0L352 0L352 0L313 0L313 0L274 0L274 0L235 0L235 0L196 0L196 0L157 0L157 0L117 0L117 0L78 0L78 0L39 0L39 0L0 0Z" fill="#8844f2"></path><path d="M0 349L39 349L39 393L78 393L78 379L117 379L117 410L157 410L157 371L196 371L196 382L235 382L235 345L274 345L274 391L313 391L313 419L352 419L352 412L391 412L391 345L430 345L430 361L470 361L470 413L509 413L509 366L548 366L548 401L587 401L587 392L626 392L626 415L665 415L665 389L704 389L704 362L743 362L743 350L783 350L783 348L822 348L822 345L861 345L861 374L900 374L900 386L900 0L900 0L861 0L861 0L822 0L822 0L783 0L783 0L743 0L743 0L704 0L704 0L665 0L665 0L626 0L626 0L587 0L587 0L548 0L548 0L509 0L509 0L470 0L470 0L430 0L430 0L391 0L391 0L352 0L352 0L313 0L313 0L274 0L274 0L235 0L235 0L196 0L196 0L157 0L157 0L117 0L117 0L78 0L78 0L39 0L39 0L0 0Z" fill="#9559ec"></path><path d="M0 290L39 290L39 302L78 302L78 343L117 343L117 300L157 300L157 347L196 347L196 313L235 313L235 310L274 310L274 358L313 358L313 305L352 305L352 333L391 333L391 296L430 296L430 290L470 290L470 302L509 302L509 333L548 333L548 364L587 364L587 334L626 334L626 318L665 318L665 325L704 325L704 347L743 347L743 312L783 312L783 354L822 354L822 308L861 308L861 349L900 349L900 327L900 0L900 0L861 0L861 0L822 0L822 0L783 0L783 0L743 0L743 0L704 0L704 0L665 0L665 0L626 0L626 0L587 0L587 0L548 0L548 0L509 0L509 0L470 0L470 0L430 0L430 0L391 0L391 0L352 0L352 0L313 0L313 0L274 0L274 0L235 0L235 0L196 0L196 0L157 0L157 0L117 0L117 0L78 0L78 0L39 0L39 0L0 0Z" fill="#9f6be5"></path><path d="M0 308L39 308L39 261L78 261L78 297L117 297L117 275L157 275L157 241L196 241L196 280L235 280L235 277L274 277L274 259L313 259L313 236L352 236L352 252L391 252L391 267L430 267L430 283L470 283L470 268L509 268L509 245L548 245L548 294L587 294L587 278L626 278L626 279L665 279L665 267L704 267L704 284L743 284L743 252L783 252L783 297L822 297L822 261L861 261L861 261L900 261L900 298L900 0L900 0L861 0L861 0L822 0L822 0L783 0L783 0L743 0L743 0L704 0L704 0L665 0L665 0L626 0L626 0L587 0L587 0L548 0L548 0L509 0L509 0L470 0L470 0L430 0L430 0L391 0L391 0L352 0L352 0L313 0L313 0L274 0L274 0L235 0L235 0L196 0L196 0L157 0L157 0L117 0L117 0L78 0L78 0L39 0L39 0L0 0Z" fill="#a87dde"></path><path d="M0 195L39 195L39 246L78 246L78 251L117 251L117 193L157 193L157 250L196 250L196 221L235 221L235 190L274 190L274 243L313 243L313 247L352 247L352 228L391 228L391 213L430 213L430 183L470 183L470 230L509 230L509 242L548 242L548 217L587 217L587 223L626 223L626 181L665 181L665 223L704 223L704 203L743 203L743 247L783 247L783 234L822 234L822 191L861 191L861 180L900 180L900 229L900 0L900 0L861 0L861 0L822 0L822 0L783 0L783 0L743 0L743 0L704 0L704 0L665 0L665 0L626 0L626 0L587 0L587 0L548 0L548 0L509 0L509 0L470 0L470 0L430 0L430 0L391 0L391 0L352 0L352 0L313 0L313 0L274 0L274 0L235 0L235 0L196 0L196 0L157 0L157 0L117 0L117 0L78 0L78 0L39 0L39 0L0 0Z" fill="#b08ed7"></path><path d="M0 199L39 199L39 127L78 127L78 136L117 136L117 172L157 172L157 171L196 171L196 154L235 154L235 153L274 153L274 134L313 134L313 181L352 181L352 185L391 185L391 189L430 189L430 161L470 161L470 182L509 182L509 198L548 198L548 143L587 143L587 138L626 138L626 141L665 141L665 173L704 173L704 167L743 167L743 176L783 176L783 150L822 150L822 200L861 200L861 197L900 197L900 137L900 0L900 0L861 0L861 0L822 0L822 0L783 0L783 0L743 0L743 0L704 0L704 0L665 0L665 0L626 0L626 0L587 0L587 0L548 0L548 0L509 0L509 0L470 0L470 0L430 0L430 0L391 0L391 0L352 0L352 0L313 0L313 0L274 0L274 0L235 0L235 0L196 0L196 0L157 0L157 0L117 0L117 0L78 0L78 0L39 0L39 0L0 0Z" fill="#b69fd0"></path><path d="M0 89L39 89L39 123L78 123L78 118L117 118L117 86L157 86L157 103L196 103L196 143L235 143L235 101L274 101L274 120L313 120L313 134L352 134L352 84L391 84L391 140L430 140L430 86L470 86L470 121L509 121L509 142L548 142L548 130L587 130L587 112L626 112L626 140L665 140L665 138L704 138L704 145L743 145L743 144L783 144L783 102L822 102L822 84L861 84L861 86L900 86L900 130L900 0L900 0L861 0L861 0L822 0L822 0L783 0L783 0L743 0L743 0L704 0L704 0L665 0L665 0L626 0L626 0L587 0L587 0L548 0L548 0L509 0L509 0L470 0L470 0L430 0L430 0L391 0L391 0L352 0L352 0L313 0L313 0L274 0L274 0L235 0L235 0L196 0L196 0L157 0L157 0L117 0L117 0L78 0L78 0L39 0L39 0L0 0Z" fill="#bcafc8"></path><path d="M0 54L39 54L39 72L78 72L78 77L117 77L117 26L157 26L157 33L196 33L196 71L235 71L235 28L274 28L274 91L313 91L313 70L352 70L352 88L391 88L391 24L430 24L430 42L470 42L470 91L509 91L509 70L548 70L548 30L587 30L587 21L626 21L626 37L665 37L665 16L704 16L704 61L743 61L743 19L783 19L783 51L822 51L822 74L861 74L861 37L900 37L900 65L900 0L900 0L861 0L861 0L822 0L822 0L783 0L783 0L743 0L743 0L704 0L704 0L665 0L665 0L626 0L626 0L587 0L587 0L548 0L548 0L509 0L509 0L470 0L470 0L430 0L430 0L391 0L391 0L352 0L352 0L313 0L313 0L274 0L274 0L235 0L235 0L196 0L196 0L157 0L157 0L117 0L117 0L78 0L78 0L39 0L39 0L0 0Z" fill="#c0c0c0"></path></svg>