<svg id="visual" viewBox="0 0 900 600" width="900" height="600" xmlns="http://www.w3.org/2000/svg" xmlns:xlink="http://www.w3.org/1999/xlink" version="1.1"><path d="M0 103L39 103L39 73L78 73L78 103L117 103L117 103L157 103L157 61L196 61L196 97L235 97L235 85L274 85L274 85L313 85L313 79L352 79L352 61L391 61L391 55L430 55L430 97L470 97L470 85L509 85L509 43L548 43L548 85L587 85L587 31L626 31L626 61L665 61L665 37L704 37L704 49L743 49L743 79L783 79L783 67L822 67L822 85L861 85L861 43L900 43L900 61L900 0L900 0L861 0L861 0L822 0L822 0L783 0L783 0L743 0L743 0L704 0L704 0L665 0L665 0L626 0L626 0L587 0L587 0L548 0L548 0L509 0L509 0L470 0L470 0L430 0L430 0L391 0L391 0L352 0L352 0L313 0L313 0L274 0L274 0L235 0L235 0L196 0L196 0L157 0L157 0L117 0L117 0L78 0L78 0L39 0L39 0L0 0Z" fill="#6600ff"></path><path d="M0 151L39 151L39 139L78 139L78 145L117 145L117 169L157 169L157 121L196 121L196 115L235 115L235 133L274 133L274 133L313 133L313 145L352 145L352 97L391 97L391 109L430 109L430 151L470 151L470 139L509 139L509 103L548 103L548 151L587 151L587 61L626 61L626 121L665 121L665 103L704 103L704 79L743 79L743 109L783 109L783 91L822 91L822 151L861 151L861 61L900 61L900 121L900 59L900 41L861 41L861 83L822 83L822 65L783 65L783 77L743 77L743 47L704 47L704 35L665 35L665 59L626 59L626 29L587 29L587 83L548 83L548 41L509 41L509 83L470 83L470 95L430 95L430 53L391 53L391 59L352 59L352 77L313 77L313 83L274 83L274 83L235 83L235 95L196 95L196 59L157 59L157 101L117 101L117 101L78 101L78 71L39 71L39 101L0 101Z" fill="#7e34f7"></path><path d="M0 259L39 259L39 247L78 247L78 193L117 193L117 271L157 271L157 241L196 241L196 217L235 217L235 211L274 211L274 247L313 247L313 223L352 223L352 217L391 217L391 187L430 187L430 235L470 235L470 247L509 247L509 169L548 169L548 217L587 217L587 133L626 133L626 223L665 223L665 151L704 151L704 187L743 187L743 145L783 145L783 139L822 139L822 253L861 253L861 163L900 163L900 181L900 119L900 59L861 59L861 149L822 149L822 89L783 89L783 107L743 107L743 77L704 77L704 101L665 101L665 119L626 119L626 59L587 59L587 149L548 149L548 101L509 101L509 137L470 137L470 149L430 149L430 107L391 107L391 95L352 95L352 143L313 143L313 131L274 131L274 131L235 131L235 113L196 113L196 119L157 119L157 167L117 167L117 143L78 143L78 137L39 137L39 149L0 149Z" fill="#9050ef"></path><path d="M0 367L39 367L39 373L78 373L78 367L117 367L117 403L157 403L157 331L196 331L196 337L235 337L235 289L274 289L274 307L313 307L313 367L352 367L352 373L391 373L391 259L430 259L430 307L470 307L470 343L509 343L509 391L548 391L548 373L587 373L587 229L626 229L626 337L665 337L665 223L704 223L704 355L743 355L743 241L783 241L783 235L822 235L822 313L861 313L861 391L900 391L900 223L900 179L900 161L861 161L861 251L822 251L822 137L783 137L783 143L743 143L743 185L704 185L704 149L665 149L665 221L626 221L626 131L587 131L587 215L548 215L548 167L509 167L509 245L470 245L470 233L430 233L430 185L391 185L391 215L352 215L352 221L313 221L313 245L274 245L274 209L235 209L235 215L196 215L196 239L157 239L157 269L117 269L117 191L78 191L78 245L39 245L39 257L0 257Z" fill="#9e68e6"></path><path d="M0 415L39 415L39 445L78 445L78 409L117 409L117 445L157 445L157 385L196 385L196 361L235 361L235 337L274 337L274 337L313 337L313 421L352 421L352 397L391 397L391 295L430 295L430 391L470 391L470 403L509 403L509 439L548 439L548 439L587 439L587 289L626 289L626 367L665 367L665 301L704 301L704 427L743 427L743 325L783 325L783 319L822 319L822 373L861 373L861 445L900 445L900 289L900 221L900 389L861 389L861 311L822 311L822 233L783 233L783 239L743 239L743 353L704 353L704 221L665 221L665 335L626 335L626 227L587 227L587 371L548 371L548 389L509 389L509 341L470 341L470 305L430 305L430 257L391 257L391 371L352 371L352 365L313 365L313 305L274 305L274 287L235 287L235 335L196 335L196 329L157 329L157 401L117 401L117 365L78 365L78 371L39 371L39 365L0 365Z" fill="#a97fdd"></path><path d="M0 445L39 445L39 505L78 505L78 433L117 433L117 493L157 493L157 439L196 439L196 379L235 379L235 391L274 391L274 367L313 367L313 457L352 457L352 439L391 439L391 313L430 313L430 409L470 409L470 421L509 421L509 451L548 451L548 475L587 475L587 331L626 331L626 427L665 427L665 361L704 361L704 439L743 439L743 361L783 361L783 355L822 355L822 409L861 409L861 481L900 481L900 337L900 287L900 443L861 443L861 371L822 371L822 317L783 317L783 323L743 323L743 425L704 425L704 299L665 299L665 365L626 365L626 287L587 287L587 437L548 437L548 437L509 437L509 401L470 401L470 389L430 389L430 293L391 293L391 395L352 395L352 419L313 419L313 335L274 335L274 335L235 335L235 359L196 359L196 383L157 383L157 443L117 443L117 407L78 407L78 443L39 443L39 413L0 413Z" fill="#b395d4"></path><path d="M0 511L39 511L39 535L78 535L78 493L117 493L117 517L157 517L157 463L196 463L196 457L235 457L235 415L274 415L274 391L313 391L313 499L352 499L352 487L391 487L391 385L430 385L430 439L470 439L470 469L509 469L509 487L548 487L548 547L587 547L587 367L626 367L626 463L665 463L665 385L704 385L704 505L743 505L743 439L783 439L783 415L822 415L822 463L861 463L861 529L900 529L900 409L900 335L900 479L861 479L861 407L822 407L822 353L783 353L783 359L743 359L743 437L704 437L704 359L665 359L665 425L626 425L626 329L587 329L587 473L548 473L548 449L509 449L509 419L470 419L470 407L430 407L430 311L391 311L391 437L352 437L352 455L313 455L313 365L274 365L274 389L235 389L235 377L196 377L196 437L157 437L157 491L117 491L117 431L78 431L78 503L39 503L39 443L0 443Z" fill="#baabca"></path><path d="M0 601L39 601L39 601L78 601L78 601L117 601L117 601L157 601L157 601L196 601L196 601L235 601L235 601L274 601L274 601L313 601L313 601L352 601L352 601L391 601L391 601L430 601L430 601L470 601L470 601L509 601L509 601L548 601L548 601L587 601L587 601L626 601L626 601L665 601L665 601L704 601L704 601L743 601L743 601L783 601L783 601L822 601L822 601L861 601L861 601L900 601L900 601L900 407L900 527L861 527L861 461L822 461L822 413L783 413L783 437L743 437L743 503L704 503L704 383L665 383L665 461L626 461L626 365L587 365L587 545L548 545L548 485L509 485L509 467L470 467L470 437L430 437L430 383L391 383L391 485L352 485L352 497L313 497L313 389L274 389L274 413L235 413L235 455L196 455L196 461L157 461L157 515L117 515L117 491L78 491L78 533L39 533L39 509L0 509Z" fill="#c0c0c0"></path></svg>