<svg id="visual" viewBox="0 0 1920 1080" width="1920" height="1080" xmlns="http://www.w3.org/2000/svg" xmlns:xlink="http://www.w3.org/1999/xlink" version="1.1"><path d="M0 195L29.2 205.8C58.3 216.7 116.7 238.3 174.8 224C233 209.7 291 159.3 349.2 127C407.3 94.7 465.7 80.3 523.8 87.5C582 94.7 640 123.3 698.2 159.3C756.3 195.3 814.7 238.7 872.8 242.3C931 246 989 210 1047.2 210C1105.3 210 1163.7 246 1221.8 251.3C1280 256.7 1338 231.3 1396.2 197.2C1454.3 163 1512.7 120 1570.8 109.2C1629 98.3 1687 119.7 1745.2 132.2C1803.3 144.7 1861.7 148.3 1890.8 150.2L1920 152L1920 0L1890.8 0C1861.7 0 1803.3 0 1745.2 0C1687 0 1629 0 1570.8 0C1512.7 0 1454.3 0 1396.2 0C1338 0 1280 0 1221.8 0C1163.7 0 1105.3 0 1047.2 0C989 0 931 0 872.8 0C814.7 0 756.3 0 698.2 0C640 0 582 0 523.8 0C465.7 0 407.3 0 349.2 0C291 0 233 0 174.8 0C116.7 0 58.3 0 29.2 0L0 0Z" fill="#c0c0c0"></path><path d="M0 509L29.2 483.7C58.3 458.3 116.7 407.7 174.8 411.2C233 414.7 291 472.3 349.2 450.8C407.3 429.3 465.7 328.7 523.8 316.2C582 303.7 640 379.3 698.2 445.8C756.3 512.3 814.7 569.7 872.8 560.7C931 551.7 989 476.3 1047.2 476.3C1105.3 476.3 1163.7 551.7 1221.8 549.8C1280 548 1338 469 1396.2 456.5C1454.3 444 1512.7 498 1570.8 525C1629 552 1687 552 1745.2 550.2C1803.3 548.3 1861.7 544.7 1890.8 542.8L1920 541L1920 150L1890.8 148.2C1861.7 146.3 1803.3 142.7 1745.2 130.2C1687 117.7 1629 96.3 1570.8 107.2C1512.7 118 1454.3 161 1396.2 195.2C1338 229.3 1280 254.7 1221.8 249.3C1163.7 244 1105.3 208 1047.2 208C989 208 931 244 872.8 240.3C814.7 236.7 756.3 193.3 698.2 157.3C640 121.3 582 92.7 523.8 85.5C465.7 78.3 407.3 92.7 349.2 125C291 157.3 233 207.7 174.8 222C116.7 236.3 58.3 214.7 29.2 203.8L0 193Z" fill="#b8a2ce"></path><path d="M0 638L29.2 645.2C58.3 652.3 116.7 666.7 174.8 690.2C233 713.7 291 746.3 349.2 753.7C407.3 761 465.7 743 523.8 721.3C582 699.7 640 674.3 698.2 692.3C756.3 710.3 814.7 771.7 872.8 786C931 800.3 989 767.7 1047.2 767.7C1105.3 767.7 1163.7 800.3 1221.8 773.3C1280 746.3 1338 659.7 1396.2 638C1454.3 616.3 1512.7 659.7 1570.8 694C1629 728.3 1687 753.7 1745.2 748.3C1803.3 743 1861.7 707 1890.8 689L1920 671L1920 539L1890.8 540.8C1861.7 542.7 1803.3 546.3 1745.2 548.2C1687 550 1629 550 1570.8 523C1512.7 496 1454.3 442 1396.2 454.5C1338 467 1280 546 1221.8 547.8C1163.7 549.7 1105.3 474.3 1047.2 474.3C989 474.3 931 549.7 872.8 558.7C814.7 567.7 756.3 510.3 698.2 443.8C640 377.3 582 301.7 523.8 314.2C465.7 326.7 407.3 427.3 349.2 448.8C291 470.3 233 412.7 174.8 409.2C116.7 405.7 58.3 456.3 29.2 481.7L0 507Z" fill="#ac84dc"></path><path d="M0 811L29.2 807.3C58.3 803.7 116.7 796.3 174.8 801.7C233 807 291 825 349.2 844.8C407.3 864.7 465.7 886.3 523.8 877.3C582 868.3 640 828.7 698.2 828.7C756.3 828.7 814.7 868.3 872.8 877.3C931 886.3 989 864.7 1047.2 859.3C1105.3 854 1163.7 865 1221.8 848.8C1280 832.7 1338 789.3 1396.2 789.3C1454.3 789.3 1512.7 832.7 1570.8 859.7C1629 886.7 1687 897.3 1745.2 890.2C1803.3 883 1861.7 858 1890.8 845.5L1920 833L1920 669L1890.8 687C1861.7 705 1803.3 741 1745.2 746.3C1687 751.7 1629 726.3 1570.8 692C1512.7 657.7 1454.3 614.3 1396.2 636C1338 657.7 1280 744.3 1221.8 771.3C1163.7 798.3 1105.3 765.7 1047.2 765.7C989 765.7 931 798.3 872.8 784C814.7 769.7 756.3 708.3 698.2 690.3C640 672.3 582 697.7 523.8 719.3C465.7 741 407.3 759 349.2 751.7C291 744.3 233 711.7 174.8 688.2C116.7 664.7 58.3 650.3 29.2 643.2L0 636Z" fill="#9b64e8"></path><path d="M0 876L29.2 886.8C58.3 897.7 116.7 919.3 174.8 933.7C233 948 291 955 349.2 960.3C407.3 965.7 465.7 969.3 523.8 960.3C582 951.3 640 929.7 698.2 933.3C756.3 937 814.7 966 872.8 975C931 984 989 973 1047.2 973C1105.3 973 1163.7 984 1221.8 975C1280 966 1338 937 1396.2 928C1454.3 919 1512.7 930 1570.8 944.5C1629 959 1687 977 1745.2 971.5C1803.3 966 1861.7 937 1890.8 922.5L1920 908L1920 831L1890.8 843.5C1861.7 856 1803.3 881 1745.2 888.2C1687 895.3 1629 884.7 1570.8 857.7C1512.7 830.7 1454.3 787.3 1396.2 787.3C1338 787.3 1280 830.7 1221.8 846.8C1163.7 863 1105.3 852 1047.2 857.3C989 862.7 931 884.3 872.8 875.3C814.7 866.3 756.3 826.7 698.2 826.7C640 826.7 582 866.3 523.8 875.3C465.7 884.3 407.3 862.7 349.2 842.8C291 823 233 805 174.8 799.7C116.7 794.3 58.3 801.7 29.2 805.3L0 809Z" fill="#8540f4"></path><path d="M0 1081L29.2 1081C58.3 1081 116.7 1081 174.8 1081C233 1081 291 1081 349.2 1081C407.3 1081 465.7 1081 523.8 1081C582 1081 640 1081 698.2 1081C756.3 1081 814.7 1081 872.8 1081C931 1081 989 1081 1047.2 1081C1105.3 1081 1163.7 1081 1221.8 1081C1280 1081 1338 1081 1396.2 1081C1454.3 1081 1512.7 1081 1570.8 1081C1629 1081 1687 1081 1745.2 1081C1803.3 1081 1861.7 1081 1890.8 1081L1920 1081L1920 906L1890.8 920.5C1861.7 935 1803.3 964 1745.2 969.5C1687 975 1629 957 1570.8 942.5C1512.7 928 1454.3 917 1396.2 926C1338 935 1280 964 1221.8 973C1163.7 982 1105.3 971 1047.2 971C989 971 931 982 872.8 973C814.7 964 756.3 935 698.2 931.3C640 927.7 582 949.3 523.8 958.3C465.7 967.3 407.3 963.7 349.2 958.3C291 953 233 946 174.8 931.7C116.7 917.3 58.3 895.7 29.2 884.8L0 874Z" fill="#6600ff"></path></svg>